<?xml version="1.0" encoding="UTF-8" standalone="no"?>
<!-- Created with Inkscape (http://www.inkscape.org/) -->

<svg
   width="1500"
   height="1500"
   viewBox="0 0 396.87498 396.875"
   version="1.1"
   id="svg5460"
   xmlns="http://www.w3.org/2000/svg"
   xmlns:svg="http://www.w3.org/2000/svg" >
  <defs
     id="defs5457" />
  <g
     id="layer1">
    <path
       id="path5620"
       style="display:inline;fill:#F0B84D;fill-opacity:1;stroke:none;stroke-width:1.17528;stroke-linecap:round;stroke-miterlimit:2.3;stroke-dasharray:none;stroke-opacity:1"
       d="M 198.4375 5.2399902 A 193.19775 193.19775 0 0 0 5.2399902 198.4375 A 193.19775 193.19775 0 0 0 198.4375 391.63501 A 193.19775 193.19775 0 0 0 391.63501 198.4375 A 193.19775 193.19775 0 0 0 198.4375 5.2399902 z M 203.66199 57.527238 C 208.00281 57.772483 212.92797 67.714874 217.97326 96.76877 L 217.97326 114.61936 L 251.37639 135.65115 L 251.37639 132.48649 C 251.37639 132.48649 250.93235 128.54983 255.30638 128.6123 C 259.6804 128.6747 263.05474 128.6123 263.05474 128.6123 C 263.05474 128.6123 266.1167 128.7377 266.24163 132.86166 C 266.36674 136.98573 266.24163 143.85892 266.24163 143.85892 L 300.15584 163.13371 L 299.80289 170.55651 L 229.99165 155.97601 L 217.12783 155.66905 L 212.62888 208.53197 L 245.24653 225.4033 L 245.12147 235.77579 L 209.87918 227.52771 C 209.87918 227.52771 206.75483 245.27413 203.75552 249.39821 C 203.75552 249.39821 199.5691 242.52446 197.13215 227.7153 L 161.82785 235.83832 L 161.64026 225.96554 L 194.4455 208.34491 L 190.00856 155.66905 L 175.73088 155.79411 L 108.027 170.2909 L 108.027 163.29236 L 142.39441 143.79691 L 142.26935 132.29942 C 142.26935 132.29942 141.64462 128.6753 146.26859 128.61282 L 153.39167 128.42524 C 153.39167 128.42524 157.01577 128.73729 157.07827 130.86178 L 157.07827 135.67337 L 188.33579 117.62693 L 188.33579 97.182182 C 188.33579 97.182182 194.77363 57.02507 203.66199 57.527238 z M 64.465316 138.40912 C 64.986357 138.4006 65.514582 138.41564 66.050232 138.4546 C 70.218561 138.72729 73.900099 140.32483 77.094519 143.24655 C 77.717821 143.79194 78.009908 144.43443 77.970951 145.1746 C 77.931995 145.83686 77.659346 146.44099 77.152913 146.98638 C 75.867354 148.27194 74.562423 148.31081 73.237907 147.10317 C 70.199312 144.33727 66.732109 143.3633 62.836475 144.18138 C 58.979797 144.99946 56.097284 147.25893 54.188424 150.95978 C 52.240607 154.66063 50.91572 159.27726 50.214506 164.80906 C 49.74703 168.47096 49.493819 173.34028 49.454862 179.41747 C 49.37695 191.61081 50.565253 200.94074 53.019503 207.4075 C 54.071324 210.05653 55.298503 212.14105 56.700932 213.66034 C 58.53188 215.5692 60.674197 216.48434 63.128446 216.40643 C 65.387914 216.32852 68.524154 215.64664 72.536658 214.36108 L 72.536658 190.63694 C 72.536658 188.88391 73.432874 188.00713 75.224866 188.00713 C 77.055814 188.00713 77.970951 188.88391 77.970951 190.63694 L 77.970951 216.40643 C 77.970951 217.26347 77.659426 217.94535 77.036125 218.45178 C 76.724474 218.72448 76.374073 218.91937 75.984509 219.03624 C 69.4788 221.06197 64.297433 221.80217 60.440755 221.25678 C 55.142693 220.4387 51.30565 217.24414 48.929313 211.67338 C 44.91681 202.28491 43.319274 189.95531 44.137358 174.68443 L 44.254146 172.58068 L 44.370935 170.41854 C 44.487804 168.78237 44.604949 167.30198 44.721818 165.97747 C 45.033469 162.62722 45.501015 159.66644 46.124316 157.09532 C 47.721526 150.39483 50.545725 145.38892 54.597184 142.07763 C 57.528649 139.69156 60.818028 138.46877 64.465316 138.40912 z M 341.01898 138.41894 C 341.40185 138.41894 341.79273 138.42655 342.19203 138.44116 L 344.23739 138.61635 L 346.28274 138.79153 C 347.99682 138.94735 349.34063 139.02511 350.31453 139.02511 C 352.06757 139.06406 352.94435 139.99915 352.94435 141.8301 C 352.9833 143.66105 352.10653 144.55727 350.31453 144.51831 C 349.45749 144.47935 348.38634 144.40109 347.10078 144.28422 L 343.88702 143.99224 C 341.3159 143.75851 339.19251 143.81682 337.51738 144.16743 L 337.45899 159.24351 L 337.40059 174.31959 L 347.68524 174.31959 C 348.50332 174.31959 349.16525 174.59224 349.67168 175.13763 C 350.1002 175.68302 350.31453 176.32602 350.31453 177.06619 C 350.31453 178.85819 349.43827 179.7544 347.68524 179.7544 L 337.40059 179.7544 C 337.36164 195.22007 337.43939 208.23154 337.63417 218.78871 C 337.67313 220.54175 336.77743 221.41801 334.94648 221.41801 C 333.15449 221.41801 332.23883 220.54175 332.19988 218.78871 C 331.96614 208.30946 331.86895 195.53124 331.90791 180.45514 L 331.9663 161.28886 L 332.02469 142.12207 C 332.02469 140.79756 332.66718 139.96017 333.95274 139.60957 L 334.18684 139.49278 C 336.06161 138.77695 338.3389 138.41894 341.01898 138.41894 z M 185.95092 231.38123 C 185.95092 231.38123 194.964 327.18684 143.24759 339.00773 C 187.02181 320.16819 178.53381 233.10877 178.53381 233.10877 L 185.95092 231.38123 z M 225.43999 232.2251 L 232.42716 233.82604 C 232.42716 233.82604 224.04304 320.2147 267.81724 339.05424 C 216.10088 327.23335 225.43999 232.2251 225.43999 232.2251 z M 201.34637 246.55859 L 203.78653 251.47147 L 206.1192 246.5741 C 203.24592 309.26379 222.01436 339.35293 222.01436 339.35293 L 185.44553 339.35293 C 185.44553 339.35293 207.09293 301.41209 201.34637 246.55859 z " />
    <g
       id="g1470"
       transform="translate(-11.082088,-349.29453)">
      <g
         id="g6260"
         transform="translate(12.326945,65.281583)"
         style="stroke-width:0;stroke-dasharray:none">
        <g
           id="g6368"
           transform="matrix(1.2390959,0,0,1.2390959,-41.976311,-149.24249)">
          <text
             xml:space="preserve"
             style="font-size:46.5399px;display:inline;fill:#498f83;fill-opacity:1;stroke:none;stroke-width:0;stroke-dasharray:none"
             x="42.570618"
             y="329.41647"
             id="text1733"><tspan
               id="tspan1731"
               style="font-style:normal;font-variant:normal;font-weight:normal;font-stretch:normal;font-size:46.5399px;font-family:Travel;-inkscape-font-specification:Travel;fill:#274d46;fill-opacity:1;stroke:#000000;stroke-width:0;stroke-dasharray:none;stroke-opacity:1"
               x="42.570618"
               y="329.41647">LES GLOBE-TROTTEURS FOUS</tspan></text>
          <rect
             style="fill:#274d46;fill-opacity:1;stroke:#498f83;stroke-width:0;stroke-dasharray:none;stroke-opacity:1"
             id="rect24716-8"
             width="11.295621"
             height="0.3731932"
             x="113.70197"
             y="331.31314" />
          <rect
             style="fill:#274d46;fill-opacity:1;stroke:#498f83;stroke-width:0;stroke-dasharray:none;stroke-opacity:1"
             id="rect24716-8-9"
             width="11.295621"
             height="0.3731932"
             x="113.70197"
             y="294.76132" />
        </g>
      </g>
    </g>
  </g>
</svg>
